<svg width="93" height="93" viewBox="0 0 93 93" fill="none" xmlns="http://www.w3.org/2000/svg">
<g filter="url(#filter0_d_9_133)">
<path d="M64.0765 43.0068C64.0768 41.9762 63.9877 40.9474 63.8109 39.932L62.3486 40.1875C63.4372 46.4263 60.8201 52.7317 55.6337 56.3657L54.4382 54.4139C54.0338 53.7594 53.9986 52.9419 54.3447 52.2548L54.6821 51.5804C54.8071 51.3286 55.0644 51.1695 55.3456 51.1706H56.3922C57.3036 51.1735 58.124 50.6183 58.4599 49.7711L59.4641 47.2594C59.5699 46.9967 59.6243 46.7155 59.6235 46.4321V44.7992C59.6246 44.4053 59.4681 44.027 59.1887 43.749L58.2979 42.8586C57.8464 42.4064 57.1561 42.2944 56.5842 42.5803L54.7578 43.4939C54.5491 43.5983 54.3034 43.5983 54.0943 43.4939L51.1257 42.0096C50.8749 41.8842 50.7169 41.6276 50.7176 41.3475V39.2961C50.7176 38.4763 50.053 37.8117 49.2333 37.8117C48.8235 37.8117 48.4912 37.4794 48.4912 37.0696V36.3274C48.4912 36.0941 48.6013 35.8741 48.788 35.7338L51.163 33.9527L50.2723 32.7652L47.8976 34.5463C47.3384 34.9681 47.0087 35.6273 47.0069 36.3274V37.0696C47.0069 38.2991 48.0038 39.2961 49.2333 39.2961V41.3475C49.2304 42.1915 49.7077 42.9637 50.464 43.3388L53.4326 44.8231C54.0599 45.1351 54.797 45.1351 55.4243 44.8231L57.251 43.9103L58.1414 44.8006V46.4335C58.1418 46.5278 58.1233 46.6212 58.0881 46.7089L57.0832 49.221C56.9716 49.5036 56.698 49.6888 56.3943 49.6877H55.3478C54.5038 49.6848 53.7316 50.1621 53.3569 50.9184L53.0191 51.5931C52.4422 52.7379 52.5009 54.1004 53.1742 55.1916L54.3839 57.1666C49.812 59.7985 44.2477 60.05 39.457 57.842L40.3677 57.234C40.4887 57.1528 40.6311 57.1089 40.7771 57.1079H42.6807C43.2718 57.1097 43.8389 56.8748 44.2557 56.4556L46.3546 54.3567C46.7735 53.9399 47.0087 53.3728 47.0069 52.7817V49.354C47.0069 48.9517 46.8978 48.5571 46.6916 48.2117L45.1062 45.5606C44.7007 44.8985 43.9806 44.4937 43.204 44.4912H41.1214C40.376 44.4904 39.6795 44.8626 39.266 45.4826L38.4459 46.7176H36.6166C35.7969 46.7176 35.1323 47.3822 35.1323 48.202V49.6196C35.1323 49.8715 35.0044 50.1063 34.7924 50.2429L32.4768 51.7363C30.816 49.1278 29.9347 46.0991 29.9372 43.0068C29.9372 42.7583 29.9445 42.5111 29.9557 42.2647H31.2465C31.5277 42.264 31.785 42.4231 31.91 42.6753L32.779 44.4169C33.0302 44.9195 33.5447 45.2359 34.1068 45.2333H34.8903C35.3566 45.234 35.7962 45.0159 36.0771 44.6437C36.3583 44.2716 36.4481 43.7892 36.3199 43.341L35.3744 40.0382H36.8391C37.345 40.0382 37.8353 39.8661 38.23 39.5501L40.6525 37.6121C41.4327 36.9859 41.7005 35.9168 41.3077 34.9968L40.0372 32.0281C39.8908 31.6868 40.0194 31.29 40.3379 31.099L42.2067 29.9778C42.884 29.5694 43.2953 28.833 43.2877 28.0419L43.2754 26.9562C45.6689 26.5069 48.1331 26.5996 50.4861 27.228L50.8662 25.797C43.4954 23.826 35.6879 26.7682 31.4513 33.1135C27.2147 39.4588 27.4897 47.7975 32.1354 53.8497C36.7812 59.9022 44.7655 62.3233 51.9903 59.8707C59.2151 57.4181 64.0754 50.6364 64.0765 43.0068ZM41.7933 27.3074L41.802 28.0629C41.8052 28.3268 41.6679 28.5721 41.4414 28.7076L39.5719 29.8292C38.6203 30.405 38.2365 31.5929 38.6717 32.6166L39.9422 35.5853C40.0738 35.8918 39.9846 36.2488 39.7241 36.4575L37.3015 38.3952C37.17 38.4988 37.0069 38.5546 36.8391 38.5539H35.3744C34.908 38.5532 34.4684 38.7717 34.1876 39.1439C33.9064 39.5157 33.8165 39.9984 33.9448 40.4466L34.8903 43.749H34.1068L33.2374 42.011C32.8627 41.2547 32.0905 40.7775 31.2465 40.7804H30.093C30.9867 34.3713 35.5726 29.0907 41.7933 27.3074ZM33.3288 52.9517L35.5969 51.4898C36.2336 51.0811 36.6177 50.3759 36.6166 49.6196V48.202H38.4459C38.9424 48.202 39.4059 47.9537 39.6809 47.5406L40.5039 46.306C40.6416 46.0994 40.8735 45.9755 41.1214 45.9755H43.204C43.4609 45.9758 43.6998 46.1088 43.8349 46.3274L45.4171 48.9738C45.4863 49.0887 45.5225 49.2199 45.5225 49.354V52.7817C45.5225 52.9789 45.4446 53.168 45.3051 53.3072L43.2062 55.4061C43.067 55.5456 42.8779 55.6239 42.6807 55.6235H40.7771C40.3372 55.6235 39.9067 55.754 39.5407 55.9982L37.9578 57.0553C36.1695 55.9924 34.5985 54.5998 33.3288 52.9517Z" fill="white"/>
<path d="M25.5347 43.7291L24.0543 43.8324C24.0891 44.3347 24.1417 44.8431 24.2109 45.3424L25.6818 45.1391C25.6173 44.6731 25.5673 44.1944 25.5347 43.7291Z" fill="white"/>
<path d="M27.7851 32.7482L26.4664 32.0669C26.2348 32.5119 26.0156 32.9776 25.8152 33.4421L27.1781 34.0306C27.3665 33.5972 27.5713 33.166 27.7851 32.7482Z" fill="white"/>
<path d="M25.9235 46.5358L24.4703 46.8409C24.5743 47.3359 24.6932 47.8316 24.8327 48.3165L26.2605 47.9135C26.1337 47.4598 26.0202 46.9982 25.9235 46.5358Z" fill="white"/>
<path d="M25.9051 38.0835L24.4505 37.7867C24.3504 38.2785 24.2649 38.7833 24.1982 39.2848L25.6691 39.4816C25.7315 39.0134 25.8108 38.5427 25.9051 38.0835Z" fill="white"/>
<path d="M29.2567 30.3229L28.0424 29.468C27.7532 29.8797 27.4734 30.308 27.2114 30.7407L28.4805 31.5104C28.7255 31.1056 28.9867 30.7066 29.2567 30.3229Z" fill="white"/>
<path d="M26.6613 35.3516L25.2618 34.8588C25.0933 35.3375 24.9404 35.8238 24.8059 36.309L26.237 36.7047C26.3609 36.2532 26.504 35.7984 26.6613 35.3516Z" fill="white"/>
<path d="M25.5296 40.8924L24.0453 40.796C24.0152 41.2805 24 41.7701 24 42.2648V42.3122L25.4843 42.2648C25.4843 41.8042 25.4995 41.3468 25.5296 40.8924Z" fill="white"/>
<path d="M26.6918 49.2642L25.2952 49.7642C25.4658 50.2408 25.6536 50.7151 25.8547 51.1743L27.2151 50.5807C27.0274 50.1509 26.8512 49.7088 26.6918 49.2642Z" fill="white"/>
<path d="M31.0422 28.1185L29.9551 27.1085C29.6115 27.4796 29.276 27.8648 28.9592 28.2551L30.1123 29.1904C30.4077 28.8251 30.7211 28.4646 31.0422 28.1185Z" fill="white"/>
<path d="M43.3704 21.6855L43.1624 20.2146C42.6652 20.2838 42.1615 20.3719 41.6658 20.4759L41.9705 21.9298C42.4329 21.8312 42.9037 21.7493 43.3704 21.6855Z" fill="white"/>
<path d="M46.1967 21.4843L46.1905 20C45.6828 20 45.1722 20.0203 44.6729 20.0558L44.7783 21.5401C45.2469 21.5028 45.7194 21.4843 46.1967 21.4843Z" fill="white"/>
<path d="M40.5931 22.2681L40.1902 20.8396C39.7071 20.9759 39.2193 21.1317 38.7432 21.3034L39.2447 22.7001C39.6893 22.5406 40.1427 22.3957 40.5931 22.2681Z" fill="white"/>
<path d="M33.1091 26.1787L32.1695 25.0299C31.7792 25.3488 31.3947 25.6858 31.0276 26.0308L32.0433 27.1129C32.3862 26.7907 32.7456 26.4762 33.1091 26.1787Z" fill="white"/>
<path d="M37.9288 23.2242L37.3349 21.8645C36.8758 22.0656 36.4155 22.2867 35.9666 22.5211L36.6536 23.8362C37.0707 23.6173 37.4998 23.414 37.9288 23.2242Z" fill="white"/>
<path d="M35.419 24.5356L34.6424 23.2701C34.2119 23.5343 33.7861 23.8163 33.3762 24.108L34.2365 25.3176C34.6196 25.0469 35.0167 24.7816 35.419 24.5356Z" fill="white"/>
<path d="M54.5582 61.3241L55.1522 62.6845C55.6146 62.4834 56.0744 62.2631 56.5212 62.0308L55.8385 60.7139C55.42 60.9306 54.9895 61.1364 54.5582 61.3241Z" fill="white"/>
<path d="M61.4551 56.4444L62.5404 57.4583C62.8847 57.0873 63.221 56.7042 63.5391 56.3132L62.3882 55.3757C62.0907 55.741 61.7758 56.1009 61.4551 56.4444Z" fill="white"/>
<path d="M59.3848 58.3809L60.3226 59.5311C60.7129 59.2126 61.0974 58.8766 61.4663 58.5327L60.4534 57.4478C60.1074 57.771 59.7511 58.0819 59.3848 58.3809Z" fill="white"/>
<path d="M63.2467 54.2447L64.4589 55.1043C64.7499 54.6923 65.0311 54.2654 65.2931 53.8334L64.0255 53.0619C63.7798 53.4609 63.5185 53.8602 63.2467 54.2447Z" fill="white"/>
<path d="M57.0714 60.0178L57.8426 61.2847C58.2716 61.0227 58.6981 60.7422 59.1109 60.4505L58.2528 59.2394C57.8708 59.5119 57.4715 59.7739 57.0714 60.0178Z" fill="white"/>
<path d="M51.8918 62.274L52.2926 63.7036C52.7771 63.5677 53.2649 63.4126 53.7407 63.2434L53.241 61.8453C52.7956 62.0062 52.3437 62.1479 51.8918 62.274Z" fill="white"/>
<path d="M66.9977 43.6831L68.4784 43.7824C68.5124 43.2794 68.5295 42.7688 68.5295 42.2648H67.0452C67.0452 42.7413 67.0292 43.2142 66.9977 43.6831Z" fill="white"/>
<path d="M66.6154 46.4908L68.0692 46.7876C68.1711 46.2955 68.2569 45.7907 68.3254 45.2899L66.8545 45.0902C66.7907 45.5613 66.7103 46.0313 66.6154 46.4908Z" fill="white"/>
<path d="M65.8533 49.2203L67.2513 49.7168C67.4213 49.2388 67.5757 48.7521 67.7108 48.268L66.2809 47.869C66.1544 48.3195 66.0105 48.7742 65.8533 49.2203Z" fill="white"/>
<path d="M64.7216 51.8221L66.0395 52.506C66.2718 52.0606 66.4914 51.5967 66.6926 51.1329L65.3314 50.5389C65.1437 50.9731 64.9383 51.4043 64.7216 51.8221Z" fill="white"/>
<path d="M27.8257 51.8573L26.5099 52.5444C26.7436 52.9897 26.9955 53.4351 27.2575 53.8645L28.5273 53.0905C28.2794 52.6908 28.0449 52.2759 27.8257 51.8573Z" fill="white"/>
<path d="M32.238 59.5573C32.6312 59.8769 33.0389 60.1856 33.4491 60.4752L34.3025 59.2601C33.9162 58.9872 33.539 58.7017 33.1708 58.4038L32.238 59.5573Z" fill="white"/>
<path d="M37.4191 62.703C37.88 62.9027 38.3565 63.0904 38.836 63.2604L39.331 61.8608C38.8856 61.7018 38.4403 61.5275 38.0105 61.3412L37.4191 62.703Z" fill="white"/>
<path d="M34.7189 61.3057C35.1523 61.5691 35.5984 61.8192 36.0452 62.0478L36.7272 60.7287C36.3101 60.5135 35.8944 60.2798 35.4893 60.0341L34.7189 61.3057Z" fill="white"/>
<path d="M30.0116 57.4844C30.358 57.8555 30.7204 58.2153 31.0868 58.5574L32.0993 57.471C31.7565 57.1517 31.418 56.8147 31.0944 56.4697L30.0116 57.4844Z" fill="white"/>
<path d="M29.3042 54.2751L28.0931 55.1329C28.3849 55.5442 28.6943 55.9493 29.0132 56.3414L30.1598 55.4011C29.863 55.0372 29.576 54.6589 29.3042 54.2751Z" fill="white"/>
<path d="M49.1167 62.851L49.3178 64.3212C49.8161 64.2527 50.3198 64.1668 50.8155 64.0635L50.5144 62.6104C50.0498 62.706 49.5816 62.7872 49.1167 62.851Z" fill="white"/>
<path d="M43.2599 64.3284C43.7564 64.3954 44.2648 64.4465 44.7714 64.4769L44.8703 62.9926C44.396 62.9615 43.9216 62.9133 43.4603 62.851L43.2599 64.3284Z" fill="white"/>
<path d="M46.2869 63.0452V64.5295C46.7953 64.5295 47.3059 64.5118 47.8056 64.477L47.7038 62.9927C47.2363 63.0278 46.7641 63.0452 46.2869 63.0452Z" fill="white"/>
<path d="M40.2852 63.717C40.7729 63.8525 41.2701 63.9728 41.7622 64.0739L42.059 62.62C41.5995 62.5258 41.1357 62.4135 40.6816 62.2874L40.2852 63.717Z" fill="white"/>
<path d="M52.3507 26.263L51.9238 33.5215C51.8618 34.5796 52.255 35.6139 53.0044 36.364L54.4441 37.8023L57.0645 30.9841L59.7135 33.6327V36.9087C59.7124 37.4982 59.9473 38.0643 60.3658 38.4796L61.6526 39.7675L63.2268 37.1438L63.6044 37.5207C64.1636 38.0998 64.9913 38.3317 65.77 38.1281C66.5484 37.9244 67.1561 37.3163 67.3601 36.5379C67.5638 35.7595 67.3315 34.9315 66.7528 34.3727L66.3759 33.9955L68.9999 32.4209L67.7131 31.1323C67.2967 30.713 66.73 30.4782 66.1389 30.48H62.8615L60.2172 27.8321L67.0394 25.2084L65.5964 23.768C64.8474 23.0178 63.8128 22.625 62.755 22.6881L55.4965 23.115L53.1091 20.7265C52.2278 19.8858 50.8413 19.8858 49.96 20.7265C49.0903 21.5962 49.0903 23.0059 49.96 23.8756L52.3507 26.263ZM53.8839 35.1228C53.544 34.6938 53.3737 34.1545 53.4052 33.6081L53.7545 27.6708L55.9187 29.835L53.8839 35.1228ZM61.3602 37.3663C61.2555 37.2344 61.1982 37.071 61.1978 36.9025V35.1134L62.1469 36.061L61.3602 37.3663ZM66.1382 31.9621C66.3067 31.9625 66.4701 32.0198 66.602 32.1245L65.2946 32.9134L64.3466 31.9665L66.1382 31.9621ZM62.8416 24.1695C63.3881 24.1372 63.9277 24.3079 64.3564 24.6482L59.0656 26.683L56.9014 24.5188L62.8416 24.1695ZM51.0102 21.7767C51.2998 21.4875 51.769 21.4875 52.0589 21.7767L65.7033 35.4214C65.9925 35.711 65.9925 36.1803 65.7033 36.4698C65.4098 36.7507 64.9474 36.7507 64.6539 36.4698L51.0102 22.8254C50.721 22.5355 50.721 22.0666 51.0102 21.7767Z" fill="white"/>
<circle cx="46.5" cy="42.5" r="42" stroke="white"/>
</g>
<defs>
<filter id="filter0_d_9_133" x="0" y="0" width="93" height="93" filterUnits="userSpaceOnUse" color-interpolation-filters="sRGB">
<feFlood flood-opacity="0" result="BackgroundImageFix"/>
<feColorMatrix in="SourceAlpha" type="matrix" values="0 0 0 0 0 0 0 0 0 0 0 0 0 0 0 0 0 0 127 0" result="hardAlpha"/>
<feOffset dy="4"/>
<feGaussianBlur stdDeviation="2"/>
<feComposite in2="hardAlpha" operator="out"/>
<feColorMatrix type="matrix" values="0 0 0 0 0 0 0 0 0 0 0 0 0 0 0 0 0 0 0.25 0"/>
<feBlend mode="normal" in2="BackgroundImageFix" result="effect1_dropShadow_9_133"/>
<feBlend mode="normal" in="SourceGraphic" in2="effect1_dropShadow_9_133" result="shape"/>
</filter>
</defs>
</svg>
